<svg width="92" height="92" viewBox="0 0 92 92" fill="none" xmlns="http://www.w3.org/2000/svg">
<path d="M43.8735 28.0312C46.2906 27.8893 48.6933 27.5627 51.0605 27.0542C52.6297 25.9092 53.8974 24.4006 54.7546 22.6579C55.7464 26.4077 58.42 28.7352 61.8123 28.7352C68.0363 28.7352 74.749 25.5888 74.749 18.6783C74.933 14.911 75.4136 11.164 76.1864 7.47206C76.2574 7.12837 76.2002 6.77058 76.0254 6.46621C75.8506 6.16183 75.5704 5.93192 75.2377 5.81986C74.7346 5.66182 70.0918 4.38316 61.1942 8.77945C58.7697 9.96247 56.8187 11.9328 55.6602 14.3682C54.2228 8.93749 48.7031 4.31132 43.126 4.31132C39.6187 4.31132 30.8937 1.26553 27.832 0.101804C27.6297 0.0213436 27.4117 -0.012131 27.1946 0.00390707C26.9775 0.0199451 26.7668 0.0850768 26.5785 0.194385C26.3903 0.303694 26.2293 0.454323 26.1078 0.634902C25.9863 0.815481 25.9074 1.02129 25.8771 1.23679C25.7909 1.84021 23.836 16.2646 31.828 23.7498C35.13 26.694 39.4531 28.2306 43.8735 28.0312ZM62.4591 11.3368C65.6113 9.61005 69.117 8.62716 72.7079 8.46338H73.0528C72.39 11.8318 71.9959 15.2475 71.8742 18.6783C71.8742 23.6205 66.6564 25.8618 61.8123 25.8618C61.4678 25.865 61.1245 25.8215 60.7917 25.7325L67.2888 16.6382C67.4721 16.3289 67.5327 15.9621 67.4587 15.6103C67.3846 15.2585 67.1813 14.9472 66.8889 14.7379C66.5965 14.5287 66.2361 14.4365 65.8791 14.4798C65.522 14.5231 65.1942 14.6985 64.9602 14.9716L58.4919 24.0084C58.0323 23.341 57.6964 22.5964 57.5001 21.8103C57.0392 19.7618 57.2769 17.618 58.1756 15.7202C59.0742 13.8223 60.582 12.2793 62.4591 11.3368ZM28.5794 3.43494C32.0005 4.6705 39.4606 7.18472 43.126 7.18472C45.7307 7.37735 48.1795 8.49876 50.0263 10.3447C51.8732 12.1906 52.9951 14.6382 53.1879 17.2416C53.1925 18.4724 52.9521 19.6918 52.4808 20.8288C52.0094 21.9659 51.3165 22.9979 50.4424 23.8648L38.4401 10.5322C38.3174 10.3795 38.1648 10.2535 37.9916 10.1619C37.8184 10.0703 37.6283 10.0151 37.433 9.99961C37.2377 9.98411 37.0413 10.0087 36.8558 10.0718C36.6704 10.135 36.4998 10.2353 36.3545 10.3668C36.2093 10.4982 36.0925 10.6579 36.0113 10.8361C35.93 11.0143 35.8861 11.2073 35.8822 11.4031C35.8783 11.5988 35.9144 11.7934 35.9885 11.9747C36.0625 12.156 36.1728 12.3203 36.3127 12.4574L47.4382 24.8848C41.5161 25.6894 36.9164 24.6118 33.7541 21.6523C28.4213 16.6238 28.3495 7.32839 28.5794 3.43494Z" fill="#56C622"/>
<path d="M56.0648 43.1005V28.7336C56.0648 28.3525 55.9134 27.9871 55.6438 27.7177C55.3742 27.4482 55.0086 27.2969 54.6274 27.2969C54.2462 27.2969 53.8806 27.4482 53.611 27.7177C53.3414 27.9871 53.19 28.3525 53.19 28.7336V43.1005C53.19 43.4816 53.3414 43.847 53.611 44.1164C53.8806 44.3859 54.2462 44.5372 54.6274 44.5372C55.0086 44.5372 55.3742 44.3859 55.6438 44.1164C55.9134 43.847 56.0648 43.4816 56.0648 43.1005ZM90.5626 57.4675H88.6365C88.9172 56.5335 89.0813 55.5684 89.1252 54.5941C89.1252 54.2131 88.9738 53.8476 88.7042 53.5782C88.4346 53.3088 88.069 53.1574 87.6878 53.1574H85.2729C85.8356 51.7848 86.1659 50.3282 86.2504 48.8473C86.2504 48.4663 86.0989 48.1008 85.8294 47.8314C85.5598 47.562 85.1942 47.4106 84.813 47.4106H79.0633C78.8053 47.4107 78.5521 47.4802 78.3303 47.6118L71.1432 51.9218C70.8554 52.131 70.6555 52.4395 70.5821 52.7875C70.5088 53.1355 70.5671 53.4984 70.746 53.8059C70.9249 54.1134 71.2115 54.3436 71.5504 54.452C71.8893 54.5605 72.2564 54.5394 72.5806 54.393L79.4658 50.284H83.1599C83.0306 50.9018 82.2975 53.1574 82.2975 53.1574H81.9381C81.6802 53.1575 81.4269 53.227 81.2051 53.3585L74.018 57.6686C73.7302 57.8778 73.5303 58.1863 73.4569 58.5343C73.3836 58.8823 73.442 59.2452 73.6208 59.5527C73.7997 59.8601 74.0863 60.0904 74.4252 60.1988C74.7641 60.3073 75.1312 60.2862 75.4554 60.1397L82.3406 56.0308H86.0348L85.6179 57.4675H84.813C84.555 57.4676 84.3018 57.537 84.0799 57.6686L60.1183 71.7482L34.5037 66.6192C34.0961 66.5288 33.7352 66.2938 33.4878 65.9576C33.2405 65.6214 33.1235 65.207 33.1586 64.7912C33.1937 64.3754 33.3785 63.9864 33.6787 63.6964C33.9789 63.4064 34.3742 63.2351 34.7912 63.2143H56.0648C57.5897 63.2143 59.0521 62.6088 60.1304 61.5311C61.2087 60.4534 61.8144 58.9916 61.8144 57.4675C61.8144 55.9433 61.2087 54.4816 60.1304 53.4039C59.0521 52.3262 57.5897 51.7207 56.0648 51.7207H23.7087C21.0504 51.7014 18.4924 52.7344 16.5936 54.5941L0.42273 70.8144C0.15206 71.0849 -9.87949e-09 71.4519 0 71.8345C9.87949e-09 72.217 0.15206 72.584 0.42273 72.8545C0.693399 73.125 1.06051 73.277 1.44329 73.277C1.82607 73.277 2.19318 73.125 2.46385 72.8545L18.6922 56.6917C20.025 55.3628 21.8262 54.6096 23.7087 54.5941H56.0648C56.8273 54.5941 57.5585 54.8968 58.0976 55.4357C58.6367 55.9746 58.9396 56.7054 58.9396 57.4675C58.9396 58.2296 58.6367 58.9604 58.0976 59.4993C57.5585 60.0382 56.8273 60.3409 56.0648 60.3409H34.7912C33.6588 60.3532 32.5708 60.7826 31.7354 61.5468C30.9001 62.311 30.3762 63.3564 30.264 64.4827C30.1519 65.609 30.4594 66.7371 31.1276 67.6509C31.7958 68.5647 32.7779 69.2 33.8856 69.4352L60.0895 74.7078C60.4394 74.779 60.8031 74.7176 61.1101 74.5354L85.2011 60.3409H88.924C88.4496 62.539 86.7966 66.8635 81.1619 70.6276L59.529 84.6785C57.4958 85.9923 55.189 86.8242 52.7849 87.1106C50.3809 87.3969 47.9431 87.1302 45.658 86.3307L29.2284 80.5839C28.9813 80.5041 28.7171 80.4926 28.464 80.5508C28.211 80.609 27.9784 80.7346 27.791 80.9144L19.1665 89.5345C19.0318 89.6681 18.9249 89.827 18.8519 90.0021C18.7789 90.1772 18.7414 90.3649 18.7414 90.5546C18.7414 90.7443 18.7789 90.932 18.8519 91.1071C18.9249 91.2822 19.0318 91.4411 19.1665 91.5747C19.3002 91.7093 19.4591 91.8162 19.6343 91.8891C19.8095 91.9621 19.9973 91.9996 20.1871 91.9996C20.3768 91.9996 20.5647 91.9621 20.7399 91.8891C20.915 91.8162 21.074 91.7093 21.2077 91.5747L29.1853 83.5866L44.6949 89.0748C47.3998 90.0111 50.2825 90.3191 53.1243 89.9756C55.966 89.6321 58.6922 88.646 61.0957 87.0922L82.6569 73.0269C91.8994 66.921 92 59.2346 92 58.9042C92 58.5232 91.8486 58.1577 91.579 57.8883C91.3094 57.6189 90.9438 57.4675 90.5626 57.4675Z" fill="#56C622"/>
<path d="M44.5655 43.1006C42.6542 43.0954 40.7686 43.5416 39.0625 44.403C37.3564 45.2644 35.8781 46.5165 34.748 48.0572C34.5386 48.3722 34.4619 48.7571 34.5346 49.1282C34.6072 49.4994 34.8234 49.827 35.1361 50.0399C35.2927 50.1458 35.4687 50.2197 35.6539 50.2576C35.8392 50.2954 36.0301 50.2963 36.2157 50.2602C36.4013 50.2242 36.5779 50.1519 36.7355 50.0476C36.8931 49.9432 37.0286 49.8088 37.1341 49.652C38.0077 48.511 39.1325 47.5865 40.4212 46.9502C41.71 46.3139 43.1281 45.9829 44.5655 45.9829C46.003 45.9829 47.4211 46.3139 48.7098 46.9502C49.9986 47.5865 51.1234 48.511 51.9969 49.652C52.1288 49.8469 52.3065 50.0066 52.5146 50.1168C52.7226 50.227 52.9545 50.2845 53.19 50.2841C53.4726 50.2873 53.7491 50.2019 53.9806 50.0399C54.2957 49.8292 54.5147 49.5027 54.5901 49.1314C54.6655 48.76 54.5911 48.374 54.383 48.0572C53.253 46.5165 51.7747 45.2644 50.0686 44.403C48.3625 43.5416 46.4769 43.0954 44.5655 43.1006ZM57.5022 48.8474C62.2744 48.8474 64.8186 53.7609 64.8474 53.804C64.9668 54.041 65.1496 54.2402 65.3754 54.3797C65.6012 54.5191 65.8612 54.5934 66.1267 54.5942C66.3521 54.5969 66.5747 54.5425 66.7735 54.4362C67.112 54.2639 67.3686 53.9647 67.4871 53.604C67.6056 53.2433 67.5764 52.8503 67.4059 52.511C67.2766 52.2524 64.0712 45.974 57.5022 45.974C57.121 45.974 56.7554 46.1254 56.4858 46.3948C56.2162 46.6643 56.0648 47.0297 56.0648 47.4107C56.0648 47.7918 56.2162 48.1572 56.4858 48.4266C56.7554 48.6961 57.121 48.8474 57.5022 48.8474ZM65.4079 58.1859C66.1704 58.1859 66.9016 58.4887 67.4408 59.0275C67.9799 59.5664 68.2828 60.2973 68.2828 61.0593C68.2828 61.4404 68.4342 61.8058 68.7038 62.0752C68.9733 62.3447 69.3389 62.496 69.7202 62.496C70.1014 62.496 70.467 62.3447 70.7366 62.0752C71.0061 61.8058 71.1576 61.4404 71.1576 61.0593C71.1576 59.5352 70.5518 58.0735 69.4735 56.9957C68.3953 55.918 66.9328 55.3126 65.4079 55.3126C65.0267 55.3126 64.6611 55.4639 64.3915 55.7333C64.122 56.0028 63.9705 56.3682 63.9705 56.7492C63.9705 57.1303 64.122 57.4957 64.3915 57.7651C64.6611 58.0346 65.0267 58.1859 65.4079 58.1859Z" fill="#56C622"/>
</svg>
