<svg width="105" height="78" viewBox="0 0 105 78" fill="none" xmlns="http://www.w3.org/2000/svg">
<path fill-rule="evenodd" clip-rule="evenodd" d="M27.5104 13.0504L41.6146 12.491L50.1961 2.57845L58.3988 14.8686L60.0111 14.6372L50.3628 0.93431L40.5096 2.75889V1.00755L39.6976 0.839844L37.2521 1.35675V3.36178L33.967 3.97103L29.4895 8.03822C29.665 7.84255 29.8548 7.62782 29.9765 7.48933C31.0333 6.16162 30.84 3.0266 30.6112 1.62506C28.7658 2.24061 27.5091 3.30568 27.1115 3.76128C25.2743 5.61548 26.0872 7.85248 26.7233 8.7392C26.7158 5.59799 28.6531 3.74746 29.6226 3.21485C27.281 5.45512 26.8876 8.17206 27.1329 10.1788L26.8622 10.4247C26.1602 9.43329 24.9933 8.47573 23.192 8.24598C23.9024 8.14485 25.6364 8.36462 26.8895 10.0528C26.8609 9.32327 26.3827 7.79878 24.6986 7.53712C24.3123 7.45138 23.2416 7.38145 22.0488 7.78759C22.4923 8.63077 23.6476 10.3898 24.7209 10.6804C24.9579 10.7322 25.46 10.8394 25.5719 10.854C25.5842 10.8556 25.6055 10.8562 25.6346 10.857C25.7507 10.8602 25.9905 10.8667 26.2784 10.955L26.0457 11.1664V13.061C26.0457 13.061 26.8555 13.0409 27.5104 13.0504ZM50.1403 3.4277L41.857 12.9975L28.3313 13.5356V25.0201L40.7584 26.5125V26.5167L48.5269 25.6103V16.6625L52.1018 16.6572V25.1921L57.8292 24.4905V14.9483L50.1403 3.4277ZM33.6076 21.4368L30.0062 21.2043V16.6084L33.6076 16.6105V21.4368ZM39.6959 21.804L35.5086 21.5355V16.5893L39.6959 16.5904V21.804ZM46.7639 21.5896L42.3431 21.8794V16.636L46.7639 16.6328V21.5896ZM56.7943 20.9613L53.4562 21.181V16.6434L56.7943 16.6392V20.9613Z" fill="#56C622"/>
<path d="M17.7207 34.7463C20.1849 29.5738 29.1757 19.3577 39.9647 18.9587C50.5467 18.5674 53.0847 24.2162 64.4065 28.6151C71.0664 31.2026 84.3462 29.6508 86.8503 28.2123" stroke="#F2F4F7" stroke-width="1.99796"/>
<path d="M53.8172 23.2197C35.7023 12.8303 24.4249 25.8368 21.1172 33.8286C38.6993 20.1891 58.1017 29.6551 65.6052 36.0931C48.3961 29.5398 39.6539 29.9438 37.4339 30.965C28.1101 35.4404 34.1262 40.6884 38.2997 42.753C60.4105 54.4744 74.9956 38.7127 79.5244 29.3666C71.6923 34.0552 59.1673 27.3489 53.8172 23.2197Z" fill="#56C622"/>
<path fill-rule="evenodd" clip-rule="evenodd" d="M1.59145 54.6385H0L3.73913 61.3597V65.4542H5.14516V61.2206L8.94609 54.6385H8.11174L4.80524 60.3399H4.74344L1.59145 54.6385ZM15.2295 57.8832C14.8175 57.6669 14.2355 57.5588 13.4836 57.5588C13.0304 57.5588 12.6441 57.6 12.3248 57.6824C12.0055 57.7545 11.7273 57.8523 11.4904 57.9759C11.2638 58.0995 11.0681 58.2386 10.9033 58.3931C10.7488 58.5476 10.5994 58.7021 10.4552 58.8566L11.2587 59.6601C11.4029 59.4232 11.5471 59.212 11.6913 59.0266C11.8355 58.8309 11.99 58.6712 12.1548 58.5476C12.3299 58.4137 12.5256 58.3107 12.7419 58.2386C12.9583 58.1665 13.2106 58.1304 13.499 58.1304C14.1686 58.1304 14.627 58.3365 14.8742 58.7485C15.1317 59.1605 15.2604 59.7888 15.2604 60.6335V61.2979C14.9926 60.9683 14.6476 60.7159 14.2252 60.5408C13.8132 60.3554 13.3754 60.2627 12.9119 60.2627C12.4484 60.2627 12.0364 60.3451 11.6758 60.5099C11.3153 60.6747 11.0114 60.891 10.7642 61.1588C10.517 61.4163 10.3316 61.7099 10.208 62.0395C10.0844 62.3692 10.0226 62.6988 10.0226 63.0284C10.0226 63.3477 10.0792 63.6619 10.1925 63.9709C10.3059 64.2799 10.4758 64.558 10.7024 64.8052C10.929 65.0525 11.2123 65.2533 11.5522 65.4078C11.8921 65.5623 12.2836 65.6396 12.7265 65.6396C13.19 65.6396 13.6536 65.5572 14.1171 65.3924C14.5806 65.2173 14.9617 64.9855 15.2604 64.6971V65.4542H16.512V61.2361C16.512 60.7726 16.4965 60.3193 16.4656 59.8764C16.4347 59.4335 16.3214 59.0421 16.1257 58.7021C15.9403 58.3622 15.6416 58.0892 15.2295 57.8832ZM15.0287 61.9623C15.1317 62.1271 15.2089 62.2713 15.2604 62.3949V63.5846C15.1677 63.7906 15.0493 63.9812 14.9051 64.1563C14.7609 64.3314 14.5961 64.4859 14.4106 64.6198C14.2355 64.7434 14.045 64.8413 13.839 64.9134C13.6433 64.9855 13.4475 65.0216 13.2518 65.0216C13.0458 65.0216 12.8295 64.9804 12.6029 64.898C12.3763 64.8155 12.1703 64.6919 11.9849 64.5271C11.7994 64.352 11.6449 64.146 11.5213 63.9091C11.408 63.6619 11.3514 63.3735 11.3514 63.0438C11.3514 62.7657 11.3977 62.4979 11.4904 62.2404C11.5831 61.9829 11.7119 61.7614 11.8767 61.576C12.0518 61.3803 12.263 61.2258 12.5102 61.1125C12.7574 60.9889 13.0304 60.9271 13.3291 60.9271C13.6278 60.9271 13.8853 60.9837 14.1016 61.097C14.3179 61.2 14.5034 61.3288 14.6579 61.4833C14.8124 61.6378 14.936 61.7975 15.0287 61.9623ZM23.0329 59.4901H23.9136C23.9136 59.212 23.8415 58.9545 23.6973 58.7176C23.5531 58.4807 23.3522 58.2798 23.0947 58.115C22.8475 57.9399 22.5539 57.806 22.214 57.7133C21.8844 57.6103 21.529 57.5588 21.1479 57.5588C20.7873 57.5588 20.4474 57.6051 20.1281 57.6978C19.8191 57.7905 19.5461 57.9296 19.3092 58.115C19.0826 58.3004 18.9023 58.5322 18.7684 58.8103C18.6345 59.0781 18.5676 59.3923 18.5676 59.7528C18.5676 60.2472 18.6809 60.6386 18.9075 60.9271C19.1341 61.2155 19.4174 61.4472 19.7573 61.6224C20.0972 61.7975 20.4629 61.9417 20.8543 62.055C21.256 62.158 21.6268 62.2764 21.9668 62.4104C22.3067 62.534 22.5899 62.6936 22.8166 62.8893C23.0432 63.085 23.1565 63.3529 23.1565 63.6928C23.1565 63.837 23.1307 63.9863 23.0792 64.1409C23.038 64.2954 22.9556 64.4396 22.832 64.5735C22.7084 64.6971 22.5384 64.8052 22.3221 64.898C22.1058 64.9804 21.8328 65.0216 21.5032 65.0216C21.0912 65.0216 20.741 64.9598 20.4526 64.8362C20.1744 64.7022 19.9427 64.5477 19.7573 64.3726C19.5822 64.1872 19.4534 64.0018 19.371 63.8164C19.2989 63.631 19.2628 63.4765 19.2628 63.3529H18.2585C18.2585 63.6413 18.3255 63.9245 18.4594 64.2027C18.5933 64.4705 18.7942 64.7125 19.062 64.9289C19.3401 65.1452 19.6749 65.3203 20.0663 65.4542C20.468 65.5778 20.9315 65.6396 21.4569 65.6396C22.4045 65.6396 23.1153 65.4336 23.5891 65.0216C24.0732 64.5992 24.3153 64.0482 24.3153 63.3683C24.3153 62.8739 24.1968 62.4773 23.9599 62.1786C23.7333 61.8799 23.4449 61.643 23.0947 61.4678C22.7445 61.2824 22.3633 61.1331 21.9513 61.0198C21.5496 60.9065 21.1736 60.788 20.8234 60.6644C20.4732 60.5408 20.1796 60.3914 19.9427 60.2163C19.7161 60.0412 19.6028 59.794 19.6028 59.4747C19.6028 59.3408 19.6285 59.2017 19.68 59.0575C19.7315 58.903 19.8191 58.7639 19.9427 58.6403C20.0663 58.5064 20.2311 58.3983 20.4371 58.3159C20.6431 58.2232 20.9006 58.1768 21.2097 58.1768C21.5187 58.1768 21.7865 58.2232 22.0131 58.3159C22.2397 58.3983 22.4303 58.5064 22.5848 58.6403C22.7393 58.7639 22.8526 58.903 22.9247 59.0575C22.9968 59.212 23.0329 59.3562 23.0329 59.4901ZM27.7217 54.6385H26.4084V65.4542H27.7217V60.9889C27.7217 60.7829 27.7372 60.5305 27.7681 60.2318C27.799 59.9331 27.8814 59.6446 28.0153 59.3665C28.1595 59.0884 28.3707 58.8515 28.6488 58.6558C28.9269 58.4498 29.3132 58.3468 29.8076 58.3468C30.1578 58.3468 30.436 58.4137 30.642 58.5476C30.8583 58.6712 31.0231 58.8412 31.1364 59.0575C31.2497 59.2738 31.3218 59.5262 31.3527 59.8146C31.3939 60.103 31.4145 60.4017 31.4145 60.7108V65.4542H32.7278V60.3554C32.7278 59.7785 32.6454 59.3099 32.4806 58.9493C32.3158 58.5785 32.1098 58.2901 31.8626 58.0841C31.6154 57.8781 31.3424 57.739 31.0437 57.6669C30.7553 57.5948 30.4772 57.5588 30.2093 57.5588C29.8488 57.5588 29.4677 57.6309 29.066 57.7751C28.6746 57.909 28.3037 58.1716 27.9535 58.5631L27.7836 58.7794H27.7217V54.6385ZM37.0129 57.7287H35.6996V65.4542H37.0129V57.7287ZM35.7614 54.7003C35.5966 54.8651 35.5142 55.0609 35.5142 55.2875C35.5142 55.5141 35.5966 55.7098 35.7614 55.8746C35.9262 56.0394 36.1219 56.1218 36.3486 56.1218C36.5752 56.1218 36.7709 56.0394 36.9357 55.8746C37.1005 55.7098 37.1829 55.5141 37.1829 55.2875C37.1829 55.0609 37.1005 54.8651 36.9357 54.7003C36.7709 54.5355 36.5752 54.4531 36.3486 54.4531C36.1219 54.4531 35.9262 54.5355 35.7614 54.7003ZM41.5805 65.4542V54.6385H40.2672V65.4542H41.5805ZM56.3943 63.9245L51.4346 54.6385H50.3839V65.4542H51.0638V56.6317H51.1256L55.8999 65.6396H56.178L61.0605 56.6935H61.1223V65.4542H62.5283V54.6385H61.4622L56.4561 63.9245H56.3943ZM70.2131 57.8832C69.8011 57.6669 69.2191 57.5588 68.4672 57.5588C68.014 57.5588 67.6277 57.6 67.3084 57.6824C66.989 57.7545 66.7109 57.8523 66.474 57.9759C66.2474 58.0995 66.0517 58.2386 65.8869 58.3931C65.7324 58.5476 65.583 58.7021 65.4388 58.8566L66.2422 59.6601C66.3865 59.4232 66.5307 59.212 66.6749 59.0266C66.8191 58.8309 66.9736 58.6712 67.1384 58.5476C67.3135 58.4137 67.5092 58.3107 67.7255 58.2386C67.9418 58.1665 68.1942 58.1304 68.4826 58.1304C69.1522 58.1304 69.6105 58.3365 69.8578 58.7485C70.1153 59.1605 70.244 59.7888 70.244 60.6335V61.2979C69.9762 60.9683 69.6311 60.7159 69.2088 60.5408C68.7968 60.3554 68.359 60.2627 67.8955 60.2627C67.432 60.2627 67.0199 60.3451 66.6594 60.5099C66.2989 60.6747 65.995 60.891 65.7478 61.1588C65.5006 61.4163 65.3152 61.7099 65.1916 62.0395C65.068 62.3692 65.0062 62.6988 65.0062 63.0284C65.0062 63.3477 65.0628 63.6619 65.1761 63.9709C65.2894 64.2799 65.4594 64.558 65.686 64.8052C65.9126 65.0525 66.1959 65.2533 66.5358 65.4078C66.8757 65.5623 67.2672 65.6396 67.7101 65.6396C68.1736 65.6396 68.6371 65.5572 69.1007 65.3924C69.5642 65.2173 69.9453 64.9855 70.244 64.6971V65.4542H71.4956V61.2361C71.4956 60.7726 71.4801 60.3193 71.4492 59.8764C71.4183 59.4335 71.305 59.0421 71.1093 58.7021C70.9239 58.3622 70.6252 58.0892 70.2131 57.8832ZM70.0123 61.9623C70.1153 62.1271 70.1925 62.2713 70.244 62.3949V63.5846C70.1513 63.7906 70.0329 63.9812 69.8887 64.1563C69.7445 64.3314 69.5796 64.4859 69.3942 64.6198C69.2191 64.7434 69.0286 64.8413 68.8225 64.9134C68.6268 64.9855 68.4311 65.0216 68.2354 65.0216C68.0294 65.0216 67.8131 64.9804 67.5865 64.898C67.3599 64.8155 67.1538 64.6919 66.9684 64.5271C66.783 64.352 66.6285 64.146 66.5049 63.9091C66.3916 63.6619 66.335 63.3735 66.335 63.0438C66.335 62.7657 66.3813 62.4979 66.474 62.2404C66.5667 61.9829 66.6955 61.7614 66.8603 61.576C67.0354 61.3803 67.2466 61.2258 67.4938 61.1125C67.741 60.9889 68.014 60.9271 68.3127 60.9271C68.6114 60.9271 68.8689 60.9837 69.0852 61.097C69.3015 61.2 69.4869 61.3288 69.6414 61.4833C69.796 61.6378 69.9196 61.7975 70.0123 61.9623ZM78.0165 59.4901H78.8972C78.8972 59.212 78.8251 58.9545 78.6808 58.7176C78.5366 58.4807 78.3358 58.2798 78.0783 58.115C77.831 57.9399 77.5375 57.806 77.1976 57.7133C76.8679 57.6103 76.5126 57.5588 76.1314 57.5588C75.7709 57.5588 75.431 57.6051 75.1117 57.6978C74.8027 57.7905 74.5297 57.9296 74.2928 58.115C74.0662 58.3004 73.8859 58.5322 73.752 58.8103C73.6181 59.0781 73.5511 59.3923 73.5511 59.7528C73.5511 60.2472 73.6644 60.6386 73.8911 60.9271C74.1177 61.2155 74.4009 61.4472 74.7409 61.6224C75.0808 61.7975 75.4464 61.9417 75.8379 62.055C76.2396 62.158 76.6104 62.2764 76.9503 62.4104C77.2903 62.534 77.5735 62.6936 77.8001 62.8893C78.0268 63.085 78.1401 63.3529 78.1401 63.6928C78.1401 63.837 78.1143 63.9863 78.0628 64.1409C78.0216 64.2954 77.9392 64.4396 77.8156 64.5735C77.692 64.6971 77.522 64.8052 77.3057 64.898C77.0894 64.9804 76.8164 65.0216 76.4868 65.0216C76.0748 65.0216 75.7246 64.9598 75.4361 64.8362C75.158 64.7022 74.9263 64.5477 74.7409 64.3726C74.5657 64.1872 74.437 64.0018 74.3546 63.8164C74.2825 63.631 74.2464 63.4765 74.2464 63.3529H73.2421C73.2421 63.6413 73.3091 63.9245 73.443 64.2027C73.5769 64.4705 73.7777 64.7125 74.0456 64.9289C74.3237 65.1452 74.6584 65.3203 75.0499 65.4542C75.4516 65.5778 75.9151 65.6396 76.4405 65.6396C77.3881 65.6396 78.0989 65.4336 78.5727 65.0216C79.0568 64.5992 79.2989 64.0482 79.2989 63.3683C79.2989 62.8739 79.1804 62.4773 78.9435 62.1786C78.7169 61.8799 78.4285 61.643 78.0783 61.4678C77.728 61.2824 77.3469 61.1331 76.9349 61.0198C76.5332 60.9065 76.1572 60.788 75.807 60.6644C75.4567 60.5408 75.1632 60.3914 74.9263 60.2163C74.6997 60.0412 74.5863 59.794 74.5863 59.4747C74.5863 59.3408 74.6121 59.2017 74.6636 59.0575C74.7151 58.903 74.8027 58.7639 74.9263 58.6403C75.0499 58.5064 75.2147 58.3983 75.4207 58.3159C75.6267 58.2232 75.8842 58.1768 76.1932 58.1768C76.5023 58.1768 76.7701 58.2232 76.9967 58.3159C77.2233 58.3983 77.4139 58.5064 77.5684 58.6403C77.7229 58.7639 77.8362 58.903 77.9083 59.0575C77.9804 59.212 78.0165 59.3562 78.0165 59.4901ZM82.7053 61.5606V54.6385H81.392V65.4542H82.7053V62.5494L83.6015 61.6378L86.7071 65.4542H88.4376L84.5594 60.6953L87.5106 57.7287H86.5063L82.7053 61.5606ZM94.2647 57.8832C93.8527 57.6669 93.2707 57.5588 92.5187 57.5588C92.0655 57.5588 91.6792 57.6 91.3599 57.6824C91.0406 57.7545 90.7625 57.8523 90.5256 57.9759C90.2989 58.0995 90.1032 58.2386 89.9384 58.3931C89.7839 58.5476 89.6346 58.7021 89.4903 58.8566L90.2938 59.6601C90.438 59.4232 90.5822 59.212 90.7264 59.0266C90.8706 58.8309 91.0251 58.6712 91.1899 58.5476C91.3651 58.4137 91.5608 58.3107 91.7771 58.2386C91.9934 58.1665 92.2458 58.1304 92.5342 58.1304C93.2037 58.1304 93.6621 58.3365 93.9093 58.7485C94.1668 59.1605 94.2956 59.7888 94.2956 60.6335V61.2979C94.0278 60.9683 93.6827 60.7159 93.2604 60.5408C92.8483 60.3554 92.4106 60.2627 91.947 60.2627C91.4835 60.2627 91.0715 60.3451 90.711 60.5099C90.3504 60.6747 90.0466 60.891 89.7994 61.1588C89.5521 61.4163 89.3667 61.7099 89.2431 62.0395C89.1195 62.3692 89.0577 62.6988 89.0577 63.0284C89.0577 63.3477 89.1144 63.6619 89.2277 63.9709C89.341 64.2799 89.5109 64.558 89.7376 64.8052C89.9642 65.0525 90.2474 65.2533 90.5874 65.4078C90.9273 65.5623 91.3187 65.6396 91.7616 65.6396C92.2252 65.6396 92.6887 65.5572 93.1522 65.3924C93.6157 65.2173 93.9969 64.9855 94.2956 64.6971V65.4542H95.5471V61.2361C95.5471 60.7726 95.5317 60.3193 95.5008 59.8764C95.4698 59.4335 95.3565 59.0421 95.1608 58.7021C94.9754 58.3622 94.6767 58.0892 94.2647 57.8832ZM94.0638 61.9623C94.1668 62.1271 94.2441 62.2713 94.2956 62.3949V63.5846C94.2029 63.7906 94.0844 63.9812 93.9402 64.1563C93.796 64.3314 93.6312 64.4859 93.4458 64.6198C93.2707 64.7434 93.0801 64.8413 92.8741 64.9134C92.6784 64.9855 92.4827 65.0216 92.287 65.0216C92.0809 65.0216 91.8646 64.9804 91.638 64.898C91.4114 64.8155 91.2054 64.6919 91.02 64.5271C90.8346 64.352 90.6801 64.146 90.5565 63.9091C90.4431 63.6619 90.3865 63.3735 90.3865 63.0438C90.3865 62.7657 90.4328 62.4979 90.5256 62.2404C90.6183 61.9829 90.747 61.7614 90.9118 61.576C91.0869 61.3803 91.2981 61.2258 91.5453 61.1125C91.7925 60.9889 92.0655 60.9271 92.3642 60.9271C92.6629 60.9271 92.9204 60.9837 93.1368 61.097C93.3531 61.2 93.5385 61.3288 93.693 61.4833C93.8475 61.6378 93.9711 61.7975 94.0638 61.9623ZM103.165 65.4542H104.478V60.4481C104.478 60.2627 104.463 60.0103 104.432 59.691C104.401 59.3614 104.298 59.0421 104.123 58.733C103.958 58.4137 103.69 58.1407 103.32 57.9141C102.949 57.6772 102.423 57.5588 101.744 57.5588C101.445 57.5485 101.11 57.6103 100.739 57.7442C100.368 57.8678 100.003 58.1098 99.6422 58.4704L99.395 58.7176H99.3332V57.7287H98.0199V65.4542H99.3332V60.6799C99.3332 60.2781 99.3898 59.9331 99.5031 59.6446C99.6164 59.3562 99.771 59.1142 99.9667 58.9184C100.162 58.7227 100.384 58.5785 100.631 58.4858C100.889 58.3931 101.151 58.3468 101.419 58.3468C101.852 58.3468 102.186 58.4343 102.423 58.6094C102.66 58.7742 102.83 58.9699 102.933 59.1966C103.047 59.4232 103.114 59.6498 103.134 59.8764C103.155 60.103 103.165 60.2678 103.165 60.3708V65.4542ZM23.0383 74.9353L20.986 71.0928H20.5512V75.5682H20.8325V71.9176H20.8581L22.8337 75.645H22.9488L24.9691 71.9431H24.9947V75.5682H25.5765V71.0928H25.1353L23.0638 74.9353H23.0383ZM28.7564 72.4354C28.5859 72.3459 28.3451 72.3012 28.0339 72.3012C27.8464 72.3012 27.6866 72.3182 27.5544 72.3523C27.4223 72.3822 27.3072 72.4227 27.2092 72.4738C27.1154 72.5249 27.0344 72.5825 26.9662 72.6464C26.9023 72.7104 26.8405 72.7743 26.7808 72.8382L27.1133 73.1707C27.1729 73.0727 27.2326 72.9853 27.2923 72.9086C27.352 72.8276 27.4159 72.7615 27.4841 72.7104C27.5566 72.6549 27.6375 72.6123 27.727 72.5825C27.8166 72.5527 27.921 72.5377 28.0403 72.5377C28.3174 72.5377 28.5071 72.623 28.6094 72.7935C28.7159 72.964 28.7692 73.224 28.7692 73.5735V73.8484C28.6584 73.712 28.5156 73.6076 28.3408 73.5351C28.1703 73.4584 27.9892 73.42 27.7974 73.42C27.6056 73.42 27.4351 73.4541 27.2859 73.5223C27.1367 73.5905 27.011 73.68 26.9087 73.7909C26.8064 73.8974 26.7297 74.0189 26.6785 74.1553C26.6274 74.2917 26.6018 74.4281 26.6018 74.5645C26.6018 74.6966 26.6252 74.8266 26.6721 74.9545C26.719 75.0823 26.7893 75.1974 26.8831 75.2997C26.9769 75.402 27.0941 75.4851 27.2347 75.5491C27.3754 75.613 27.5374 75.645 27.7207 75.645C27.9125 75.645 28.1043 75.6109 28.2961 75.5427C28.4879 75.4702 28.6456 75.3743 28.7692 75.255V75.5682H29.2871V73.8228C29.2871 73.631 29.2807 73.4435 29.2679 73.2602C29.2551 73.0769 29.2082 72.915 29.1272 72.7743C29.0505 72.6336 28.9269 72.5207 28.7564 72.4354ZM28.6733 74.1233C28.7159 74.1915 28.7479 74.2512 28.7692 74.3023V74.7946C28.7308 74.8799 28.6818 74.9587 28.6221 75.0312C28.5625 75.1037 28.4943 75.1676 28.4175 75.223C28.3451 75.2741 28.2662 75.3146 28.181 75.3445C28.1 75.3743 28.019 75.3892 27.938 75.3892C27.8528 75.3892 27.7633 75.3722 27.6695 75.3381C27.5757 75.304 27.4905 75.2528 27.4138 75.1846C27.337 75.1122 27.2731 75.0269 27.222 74.9289C27.1751 74.8266 27.1516 74.7073 27.1516 74.5709C27.1516 74.4558 27.1708 74.345 27.2092 74.2384C27.2475 74.1318 27.3008 74.0402 27.369 73.9635C27.4415 73.8825 27.5289 73.8186 27.6311 73.7717C27.7334 73.7205 27.8464 73.695 27.97 73.695C28.0936 73.695 28.2002 73.7184 28.2897 73.7653C28.3792 73.8079 28.4559 73.8612 28.5198 73.9251C28.5838 73.9891 28.6349 74.0551 28.6733 74.1233ZM31.9854 73.1004H32.3498C32.3498 72.9853 32.32 72.8787 32.2603 72.7807C32.2006 72.6827 32.1175 72.5995 32.0109 72.5313C31.9086 72.4589 31.7872 72.4035 31.6465 72.3651C31.5101 72.3225 31.3631 72.3012 31.2054 72.3012C31.0562 72.3012 30.9155 72.3204 30.7834 72.3587C30.6555 72.3971 30.5426 72.4546 30.4445 72.5313C30.3508 72.6081 30.2762 72.704 30.2208 72.819C30.1653 72.9299 30.1376 73.0599 30.1376 73.2091C30.1376 73.4136 30.1845 73.5756 30.2783 73.695C30.3721 73.8143 30.4893 73.9102 30.6299 73.9827C30.7706 74.0551 30.9219 74.1148 31.0839 74.1617C31.2501 74.2043 31.4036 74.2533 31.5442 74.3087C31.6849 74.3599 31.8021 74.4259 31.8959 74.5069C31.9896 74.5879 32.0365 74.6987 32.0365 74.8394C32.0365 74.8991 32.0259 74.9609 32.0045 75.0248C31.9875 75.0887 31.9534 75.1484 31.9022 75.2038C31.8511 75.255 31.7808 75.2997 31.6913 75.3381C31.6018 75.3722 31.4888 75.3892 31.3524 75.3892C31.1819 75.3892 31.037 75.3637 30.9176 75.3125C30.8026 75.2571 30.7067 75.1932 30.6299 75.1207C30.5575 75.044 30.5042 74.9673 30.4701 74.8905C30.4403 74.8138 30.4254 74.7499 30.4254 74.6987H30.0098C30.0098 74.8181 30.0375 74.9353 30.0929 75.0504C30.1483 75.1612 30.2314 75.2614 30.3422 75.3509C30.4573 75.4404 30.5958 75.5128 30.7578 75.5682C30.924 75.6194 31.1158 75.645 31.3332 75.645C31.7254 75.645 32.0195 75.5597 32.2155 75.3892C32.4159 75.2145 32.516 74.9864 32.516 74.7051C32.516 74.5005 32.467 74.3364 32.369 74.2128C32.2752 74.0892 32.1559 73.9912 32.0109 73.9187C31.866 73.842 31.7083 73.7802 31.5378 73.7333C31.3716 73.6864 31.216 73.6374 31.0711 73.5863C30.9262 73.5351 30.8047 73.4733 30.7067 73.4009C30.6129 73.3284 30.566 73.2261 30.566 73.094C30.566 73.0386 30.5767 72.981 30.598 72.9213C30.6193 72.8574 30.6555 72.7999 30.7067 72.7487C30.7578 72.6933 30.826 72.6486 30.9113 72.6145C30.9965 72.5761 31.1031 72.5569 31.2309 72.5569C31.3588 72.5569 31.4696 72.5761 31.5634 72.6145C31.6572 72.6486 31.736 72.6933 31.7999 72.7487C31.8639 72.7999 31.9108 72.8574 31.9406 72.9213C31.9704 72.9853 31.9854 73.045 31.9854 73.1004ZM33.9256 73.9571V71.0928H33.3821V75.5682H33.9256V74.3663L34.2964 73.9891L35.5815 75.5682H36.2976L34.6928 73.5991L35.914 72.3715H35.4984L33.9256 73.9571ZM38.7088 72.4354C38.5383 72.3459 38.2974 72.3012 37.9863 72.3012C37.7988 72.3012 37.6389 72.3182 37.5068 72.3523C37.3747 72.3822 37.2596 72.4227 37.1615 72.4738C37.0678 72.5249 36.9868 72.5825 36.9186 72.6464C36.8547 72.7104 36.7928 72.7743 36.7332 72.8382L37.0656 73.1707C37.1253 73.0727 37.185 72.9853 37.2447 72.9086C37.3043 72.8276 37.3683 72.7615 37.4365 72.7104C37.5089 72.6549 37.5899 72.6123 37.6794 72.5825C37.7689 72.5527 37.8734 72.5377 37.9927 72.5377C38.2697 72.5377 38.4594 72.623 38.5617 72.7935C38.6683 72.964 38.7215 73.224 38.7215 73.5735V73.8484C38.6107 73.712 38.4679 73.6076 38.2932 73.5351C38.1227 73.4584 37.9415 73.42 37.7497 73.42C37.5579 73.42 37.3874 73.4541 37.2383 73.5223C37.0891 73.5905 36.9633 73.68 36.861 73.7909C36.7588 73.8974 36.682 74.0189 36.6309 74.1553C36.5797 74.2917 36.5542 74.4281 36.5542 74.5645C36.5542 74.6966 36.5776 74.8266 36.6245 74.9545C36.6714 75.0823 36.7417 75.1974 36.8355 75.2997C36.9292 75.402 37.0465 75.4851 37.1871 75.5491C37.3278 75.613 37.4897 75.645 37.673 75.645C37.8648 75.645 38.0566 75.6109 38.2484 75.5427C38.4402 75.4702 38.5979 75.3743 38.7215 75.255V75.5682H39.2394V73.8228C39.2394 73.631 39.233 73.4435 39.2202 73.2602C39.2075 73.0769 39.1606 72.915 39.0796 72.7743C39.0029 72.6336 38.8793 72.5207 38.7088 72.4354ZM38.6256 74.1233C38.6683 74.1915 38.7002 74.2512 38.7215 74.3023V74.7946C38.6832 74.8799 38.6342 74.9587 38.5745 75.0312C38.5148 75.1037 38.4466 75.1676 38.3699 75.223C38.2974 75.2741 38.2186 75.3146 38.1333 75.3445C38.0524 75.3743 37.9714 75.3892 37.8904 75.3892C37.8052 75.3892 37.7156 75.3722 37.6219 75.3381C37.5281 75.304 37.4429 75.2528 37.3661 75.1846C37.2894 75.1122 37.2255 75.0269 37.1743 74.9289C37.1274 74.8266 37.104 74.7073 37.104 74.5709C37.104 74.4558 37.1232 74.345 37.1615 74.2384C37.1999 74.1318 37.2532 74.0402 37.3214 73.9635C37.3938 73.8825 37.4812 73.8186 37.5835 73.7717C37.6858 73.7205 37.7988 73.695 37.9224 73.695C38.046 73.695 38.1525 73.7184 38.242 73.7653C38.3316 73.8079 38.4083 73.8612 38.4722 73.9251C38.5361 73.9891 38.5873 74.0551 38.6256 74.1233ZM42.3917 75.5682H42.9351V73.4968C42.9351 73.42 42.9287 73.3156 42.9159 73.1835C42.9031 73.0471 42.8605 72.915 42.7881 72.7871C42.7199 72.6549 42.609 72.542 42.4556 72.4482C42.3022 72.3502 42.0848 72.3012 41.8035 72.3012C41.6799 72.2969 41.5413 72.3225 41.3879 72.3779C41.2344 72.429 41.0831 72.5292 40.9339 72.6784L40.8316 72.7807H40.8061V72.3715H40.2626V75.5682H40.8061V73.5927C40.8061 73.4264 40.8295 73.2836 40.8764 73.1643C40.9233 73.045 40.9872 72.9448 41.0682 72.8638C41.1492 72.7828 41.2408 72.7231 41.3431 72.6848C41.4497 72.6464 41.5584 72.6272 41.6692 72.6272C41.8482 72.6272 41.9867 72.6635 42.0848 72.7359C42.1828 72.8041 42.2531 72.8851 42.2958 72.9789C42.3426 73.0727 42.3704 73.1664 42.3789 73.2602C42.3874 73.354 42.3917 73.4222 42.3917 73.4648V75.5682ZM44.7256 72.3715H44.1822V75.5682H44.7256V72.3715ZM44.2078 71.1184C44.1396 71.1866 44.1055 71.2676 44.1055 71.3613C44.1055 71.4551 44.1396 71.5361 44.2078 71.6043C44.276 71.6725 44.3569 71.7066 44.4507 71.7066C44.5445 71.7066 44.6255 71.6725 44.6937 71.6043C44.7619 71.5361 44.796 71.4551 44.796 71.3613C44.796 71.2676 44.7619 71.1866 44.6937 71.1184C44.6255 71.0502 44.5445 71.0161 44.4507 71.0161C44.3569 71.0161 44.276 71.0502 44.2078 71.1184ZM48.0734 75.5682H48.6168V73.4968C48.6168 73.42 48.6104 73.3156 48.5976 73.1835C48.5849 73.0471 48.5422 72.915 48.4698 72.7871C48.4016 72.6549 48.2908 72.542 48.1373 72.4482C47.9839 72.3502 47.7665 72.3012 47.4852 72.3012C47.3616 72.2969 47.223 72.3225 47.0696 72.3779C46.9162 72.429 46.7648 72.5292 46.6157 72.6784L46.5134 72.7807H46.4878V72.3715H45.9443V75.5682H46.4878V73.5927C46.4878 73.4264 46.5112 73.2836 46.5581 73.1643C46.605 73.045 46.6689 72.9448 46.7499 72.8638C46.8309 72.7828 46.9225 72.7231 47.0248 72.6848C47.1314 72.6464 47.2401 72.6272 47.3509 72.6272C47.5299 72.6272 47.6685 72.6635 47.7665 72.7359C47.8645 72.8041 47.9349 72.8851 47.9775 72.9789C48.0244 73.0727 48.0521 73.1664 48.0606 73.2602C48.0691 73.354 48.0734 73.4222 48.0734 73.4648V75.5682ZM51.9418 75.0568V75.8368C51.9418 76.0328 51.9183 76.1991 51.8715 76.3355C51.8246 76.4719 51.7585 76.5827 51.6733 76.6679C51.5923 76.7532 51.4942 76.815 51.3792 76.8533C51.2683 76.8917 51.149 76.9109 51.0211 76.9109C50.7952 76.9109 50.6119 76.8533 50.4713 76.7383C50.3349 76.6232 50.2092 76.4697 50.0941 76.2779L49.7424 76.5976C49.7723 76.636 49.8191 76.685 49.8831 76.7446C49.947 76.8086 50.028 76.8704 50.126 76.9301C50.2241 76.994 50.3413 77.0473 50.4777 77.0899C50.6141 77.1368 50.7696 77.1602 50.9444 77.1602C51.2683 77.1602 51.5305 77.1133 51.7308 77.0196C51.9311 76.9301 52.0867 76.8086 52.1975 76.6551C52.3083 76.5017 52.3829 76.3248 52.4213 76.1245C52.4639 75.9284 52.4852 75.7238 52.4852 75.5107V72.3715H51.9418V72.8702H51.9162C51.8651 72.6912 51.7542 72.5527 51.5837 72.4546C51.4175 72.3523 51.198 72.3012 50.9252 72.3012C50.7078 72.3012 50.5096 72.3417 50.3306 72.4227C50.1516 72.4994 49.9982 72.6102 49.8703 72.7551C49.7424 72.9 49.6423 73.0748 49.5698 73.2794C49.5016 73.484 49.4675 73.712 49.4675 73.9635C49.4675 74.2192 49.5016 74.4515 49.5698 74.6604C49.6423 74.865 49.7424 75.0419 49.8703 75.191C49.9982 75.336 50.1495 75.4489 50.3242 75.5299C50.5033 75.6066 50.7014 75.645 50.9188 75.645C51.1575 75.645 51.3642 75.5981 51.539 75.5043C51.718 75.4105 51.8438 75.2614 51.9162 75.0568H51.9418ZM51.9418 73.7333V74.2064C51.9418 74.3855 51.9162 74.5432 51.8651 74.6796C51.8182 74.8159 51.7542 74.931 51.6733 75.0248C51.5923 75.1186 51.4985 75.191 51.3919 75.2422C51.2854 75.2891 51.1746 75.3125 51.0595 75.3125C50.9572 75.3125 50.8464 75.2955 50.727 75.2614C50.6119 75.223 50.5033 75.1548 50.401 75.0568C50.3029 74.9587 50.2198 74.8202 50.1516 74.6412C50.0877 74.4622 50.0557 74.232 50.0557 73.9507C50.0557 73.6523 50.0962 73.4158 50.1772 73.241C50.2582 73.062 50.3519 72.9256 50.4585 72.8318C50.5693 72.7381 50.6801 72.6784 50.791 72.6528C50.906 72.623 50.9956 72.6081 51.0595 72.6081C51.2001 72.6081 51.3259 72.64 51.4367 72.704C51.5475 72.7636 51.6392 72.8468 51.7116 72.9533C51.7883 73.0556 51.8459 73.175 51.8842 73.3113C51.9226 73.4477 51.9418 73.5884 51.9418 73.7333ZM54.2534 72.3715H53.71V75.5682H54.2534V72.3715ZM53.7356 71.1184C53.6674 71.1866 53.6333 71.2676 53.6333 71.3613C53.6333 71.4551 53.6674 71.5361 53.7356 71.6043C53.8038 71.6725 53.8847 71.7066 53.9785 71.7066C54.0723 71.7066 54.1533 71.6725 54.2215 71.6043C54.2897 71.5361 54.3238 71.4551 54.3238 71.3613C54.3238 71.2676 54.2897 71.1866 54.2215 71.1184C54.1533 71.0502 54.0723 71.0161 53.9785 71.0161C53.8847 71.0161 53.8038 71.0502 53.7356 71.1184ZM57.9017 72.3715H55.1908V72.6272H57.1153L55.0885 75.5682H57.8825V75.3125H55.8749L57.9017 72.3715ZM63.5142 75.1463C63.6591 74.9928 63.7699 74.8159 63.8466 74.6156C63.9233 74.411 63.9617 74.1979 63.9617 73.9763C63.9617 73.7546 63.9233 73.5436 63.8466 73.3433C63.7699 73.1387 63.6591 72.9597 63.5142 72.8063C63.3735 72.6528 63.2009 72.5313 62.9963 72.4418C62.7959 72.3481 62.57 72.3012 62.3186 72.3012C62.0628 72.3012 61.8305 72.3481 61.6217 72.4418C61.4171 72.5313 61.2423 72.6528 61.0974 72.8063C60.9568 72.9597 60.8459 73.1387 60.7649 73.3433C60.6882 73.5436 60.6499 73.7546 60.6499 73.9763C60.6499 74.1936 60.6882 74.4046 60.7649 74.6092C60.8459 74.8096 60.9568 74.9864 61.0974 75.1399C61.2423 75.2933 61.4171 75.4169 61.6217 75.5107C61.8305 75.6002 62.0628 75.645 62.3186 75.645C62.57 75.645 62.7959 75.6002 62.9963 75.5107C63.2009 75.4212 63.3735 75.2997 63.5142 75.1463ZM63.2584 73.2538C63.3223 73.4371 63.3543 73.6779 63.3543 73.9763C63.3543 74.2704 63.3223 74.5112 63.2584 74.6987C63.1945 74.882 63.1114 75.0248 63.0091 75.1271C62.9068 75.2294 62.7938 75.2997 62.6702 75.3381C62.5466 75.3722 62.4273 75.3892 62.3122 75.3892C62.1971 75.3892 62.0777 75.3722 61.9541 75.3381C61.8305 75.2997 61.7154 75.2294 61.6089 75.1271C61.5066 75.0248 61.4213 74.882 61.3531 74.6987C61.2892 74.5112 61.2572 74.2704 61.2572 73.9763C61.2572 73.6779 61.2892 73.4371 61.3531 73.2538C61.4213 73.0663 61.5066 72.9213 61.6089 72.819C61.7154 72.7168 61.8305 72.6486 61.9541 72.6145C62.0777 72.5761 62.1971 72.5569 62.3122 72.5569C62.4273 72.5569 62.5466 72.5761 62.6702 72.6145C62.7938 72.6486 62.9068 72.7168 63.0091 72.819C63.1114 72.9213 63.1945 73.0663 63.2584 73.2538ZM65.3373 71.0928H64.7939V75.5682H65.3373V75.0504H65.3629C65.5206 75.4468 65.8531 75.645 66.3603 75.645C66.5734 75.645 66.7695 75.6066 66.9485 75.5299C67.1275 75.4489 67.281 75.336 67.4088 75.191C67.541 75.0419 67.6433 74.865 67.7157 74.6604C67.7882 74.4515 67.8244 74.2192 67.8244 73.9635C67.8244 73.712 67.7882 73.484 67.7157 73.2794C67.6433 73.0748 67.541 72.9 67.4088 72.7551C67.281 72.6102 67.1275 72.4994 66.9485 72.4227C66.7695 72.3417 66.5734 72.3012 66.3603 72.3012C66.258 72.3012 66.1557 72.3118 66.0534 72.3331C65.9554 72.3545 65.8616 72.3886 65.7721 72.4354C65.6826 72.4823 65.6016 72.5441 65.5291 72.6208C65.461 72.6933 65.4055 72.785 65.3629 72.8958H65.3373V71.0928ZM65.4013 74.6923C65.3587 74.5645 65.3373 74.4302 65.3373 74.2896V73.7333C65.3373 73.5586 65.3608 73.403 65.4077 73.2666C65.4588 73.1302 65.5249 73.0151 65.6059 72.9213C65.6869 72.8233 65.7806 72.7509 65.8872 72.704C65.9937 72.6528 66.1067 72.6272 66.226 72.6272C66.3582 72.6272 66.4839 72.6528 66.6033 72.704C66.7226 72.7509 66.827 72.8297 66.9165 72.9405C67.0103 73.0471 67.0828 73.1856 67.1339 73.3561C67.1893 73.5266 67.217 73.7333 67.217 73.9763C67.217 74.215 67.1893 74.4196 67.1339 74.59C67.0828 74.7605 67.0124 74.8991 66.9229 75.0056C66.8334 75.1122 66.7269 75.191 66.6033 75.2422C66.4839 75.2891 66.3582 75.3125 66.226 75.3125C66.1024 75.3125 65.9852 75.2869 65.8744 75.2358C65.7678 75.1804 65.6741 75.1079 65.5931 75.0184C65.5121 74.9246 65.4482 74.8159 65.4013 74.6923ZM71.3249 75.1463C71.4699 74.9928 71.5807 74.8159 71.6574 74.6156C71.7341 74.411 71.7725 74.1979 71.7725 73.9763C71.7725 73.7546 71.7341 73.5436 71.6574 73.3433C71.5807 73.1387 71.4699 72.9597 71.3249 72.8063C71.1843 72.6528 71.0117 72.5313 70.8071 72.4418C70.6067 72.3481 70.3808 72.3012 70.1294 72.3012C69.8736 72.3012 69.6413 72.3481 69.4325 72.4418C69.2279 72.5313 69.0531 72.6528 68.9082 72.8063C68.7675 72.9597 68.6567 73.1387 68.5757 73.3433C68.499 73.5436 68.4607 73.7546 68.4607 73.9763C68.4607 74.1936 68.499 74.4046 68.5757 74.6092C68.6567 74.8096 68.7675 74.9864 68.9082 75.1399C69.0531 75.2933 69.2279 75.4169 69.4325 75.5107C69.6413 75.6002 69.8736 75.645 70.1294 75.645C70.3808 75.645 70.6067 75.6002 70.8071 75.5107C71.0117 75.4212 71.1843 75.2997 71.3249 75.1463ZM71.0692 73.2538C71.1331 73.4371 71.1651 73.6779 71.1651 73.9763C71.1651 74.2704 71.1331 74.5112 71.0692 74.6987C71.0053 74.882 70.9221 75.0248 70.8199 75.1271C70.7176 75.2294 70.6046 75.2997 70.481 75.3381C70.3574 75.3722 70.2381 75.3892 70.123 75.3892C70.0079 75.3892 69.8885 75.3722 69.7649 75.3381C69.6413 75.2997 69.5262 75.2294 69.4197 75.1271C69.3174 75.0248 69.2321 74.882 69.1639 74.6987C69.1 74.5112 69.068 74.2704 69.068 73.9763C69.068 73.6779 69.1 73.4371 69.1639 73.2538C69.2321 73.0663 69.3174 72.9213 69.4197 72.819C69.5262 72.7168 69.6413 72.6486 69.7649 72.6145C69.8885 72.5761 70.0079 72.5569 70.123 72.5569C70.2381 72.5569 70.3574 72.5761 70.481 72.6145C70.6046 72.6486 70.7176 72.7168 70.8199 72.819C70.9221 72.9213 71.0053 73.0663 71.0692 73.2538ZM75.4434 75.5682V71.0928H74.8999V72.8958H74.8744C74.8318 72.785 74.7742 72.6933 74.7018 72.6208C74.6336 72.5441 74.5547 72.4823 74.4652 72.4354C74.3757 72.3886 74.2798 72.3545 74.1775 72.3331C74.0795 72.3118 73.9793 72.3012 73.877 72.3012C73.6639 72.3012 73.4678 72.3417 73.2888 72.4227C73.1098 72.4994 72.9542 72.6102 72.8221 72.7551C72.6942 72.9 72.594 73.0748 72.5216 73.2794C72.4491 73.484 72.4129 73.712 72.4129 73.9635C72.4129 74.2192 72.4491 74.4515 72.5216 74.6604C72.594 74.865 72.6942 75.0419 72.8221 75.191C72.9542 75.336 73.1098 75.4489 73.2888 75.5299C73.4678 75.6066 73.6639 75.645 73.877 75.645C74.3799 75.645 74.7124 75.4468 74.8744 75.0504H74.8999V75.5682H75.4434ZM74.8999 73.7333V74.2896C74.8999 74.4302 74.8765 74.5645 74.8296 74.6923C74.7827 74.8159 74.7188 74.9246 74.6378 75.0184C74.5611 75.1079 74.4673 75.1804 74.3565 75.2358C74.2499 75.2869 74.1349 75.3125 74.0113 75.3125C73.8749 75.3125 73.747 75.2891 73.6276 75.2422C73.5083 75.191 73.4039 75.1122 73.3144 75.0056C73.2249 74.8991 73.1524 74.7605 73.097 74.59C73.0458 74.4196 73.0203 74.215 73.0203 73.9763C73.0203 73.7333 73.0458 73.5266 73.097 73.3561C73.1524 73.1856 73.2249 73.0471 73.3144 72.9405C73.4081 72.8297 73.5147 72.7509 73.634 72.704C73.7534 72.6528 73.8791 72.6272 74.0113 72.6272C74.1306 72.6272 74.2436 72.6528 74.3501 72.704C74.4567 72.7509 74.5504 72.8233 74.6314 72.9213C74.7124 73.0151 74.7763 73.1302 74.8232 73.2666C74.8744 73.403 74.8999 73.5586 74.8999 73.7333ZM77.1346 75.5682V71.0928H76.5911V75.5682H77.1346ZM79.0344 72.3715H78.491V75.5682H79.0344V72.3715ZM78.5166 71.1184C78.4484 71.1866 78.4143 71.2676 78.4143 71.3613C78.4143 71.4551 78.4484 71.5361 78.5166 71.6043C78.5848 71.6725 78.6657 71.7066 78.7595 71.7066C78.8533 71.7066 78.9343 71.6725 79.0025 71.6043C79.0707 71.5361 79.1048 71.4551 79.1048 71.3613C79.1048 71.2676 79.0707 71.1866 79.0025 71.1184C78.9343 71.0502 78.8533 71.0161 78.7595 71.0161C78.6657 71.0161 78.5848 71.0502 78.5166 71.1184ZM82.5356 75.0568V75.8368C82.5356 76.0328 82.5122 76.1991 82.4653 76.3355C82.4184 76.4719 82.3523 76.5827 82.2671 76.6679C82.1861 76.7532 82.0881 76.815 81.973 76.8533C81.8622 76.8917 81.7428 76.9109 81.615 76.9109C81.3891 76.9109 81.2058 76.8533 81.0651 76.7383C80.9287 76.6232 80.803 76.4697 80.6879 76.2779L80.3363 76.5976C80.3661 76.636 80.413 76.685 80.4769 76.7446C80.5409 76.8086 80.6218 76.8704 80.7199 76.9301C80.8179 76.994 80.9351 77.0473 81.0715 77.0899C81.2079 77.1368 81.3635 77.1602 81.5382 77.1602C81.8622 77.1602 82.1243 77.1133 82.3246 77.0196C82.525 76.9301 82.6805 76.8086 82.7914 76.6551C82.9022 76.5017 82.9768 76.3248 83.0151 76.1245C83.0578 75.9284 83.0791 75.7238 83.0791 75.5107V72.3715H82.5356V72.8702H82.51C82.4589 72.6912 82.3481 72.5527 82.1776 72.4546C82.0114 72.3523 81.7918 72.3012 81.5191 72.3012C81.3017 72.3012 81.1035 72.3417 80.9245 72.4227C80.7454 72.4994 80.592 72.6102 80.4641 72.7551C80.3363 72.9 80.2361 73.0748 80.1636 73.2794C80.0954 73.484 80.0613 73.712 80.0613 73.9635C80.0613 74.2192 80.0954 74.4515 80.1636 74.6604C80.2361 74.865 80.3363 75.0419 80.4641 75.191C80.592 75.336 80.7433 75.4489 80.9181 75.5299C81.0971 75.6066 81.2953 75.645 81.5127 75.645C81.7514 75.645 81.9581 75.5981 82.1328 75.5043C82.3119 75.4105 82.4376 75.2614 82.51 75.0568H82.5356ZM82.5356 73.7333V74.2064C82.5356 74.3855 82.51 74.5432 82.4589 74.6796C82.412 74.8159 82.3481 74.931 82.2671 75.0248C82.1861 75.1186 82.0923 75.191 81.9858 75.2422C81.8792 75.2891 81.7684 75.3125 81.6533 75.3125C81.551 75.3125 81.4402 75.2955 81.3209 75.2614C81.2058 75.223 81.0971 75.1548 80.9948 75.0568C80.8968 74.9587 80.8136 74.8202 80.7454 74.6412C80.6815 74.4622 80.6495 74.232 80.6495 73.9507C80.6495 73.6523 80.69 73.4158 80.771 73.241C80.852 73.062 80.9458 72.9256 81.0523 72.8318C81.1632 72.7381 81.274 72.6784 81.3848 72.6528C81.4999 72.623 81.5894 72.6081 81.6533 72.6081C81.794 72.6081 81.9197 72.64 82.0305 72.704C82.1414 72.7636 82.233 72.8468 82.3055 72.9533C82.3822 73.0556 82.4397 73.175 82.4781 73.3113C82.5164 73.4477 82.5356 73.5884 82.5356 73.7333ZM84.8473 72.3715H84.3038V75.5682H84.8473V72.3715ZM84.3294 71.1184C84.2612 71.1866 84.2271 71.2676 84.2271 71.3613C84.2271 71.4551 84.2612 71.5361 84.3294 71.6043C84.3976 71.6725 84.4786 71.7066 84.5723 71.7066C84.6661 71.7066 84.7471 71.6725 84.8153 71.6043C84.8835 71.5361 84.9176 71.4551 84.9176 71.3613C84.9176 71.2676 84.8835 71.1866 84.8153 71.1184C84.7471 71.0502 84.6661 71.0161 84.5723 71.0161C84.4786 71.0161 84.3976 71.0502 84.3294 71.1184ZM5.12876 73.4311L18.4484 73.4954L18.4497 73.229L5.13005 73.1647L5.12876 73.4311ZM100.238 73.4954L86.9186 73.4311L86.9199 73.1647L100.24 73.229L100.238 73.4954Z" fill="#00923D"/>
</svg>
